<svg xmlns="http://www.w3.org/2000/svg" xmlns:xlink="http://www.w3.org/1999/xlink" width="500" zoomAndPan="magnify" viewBox="0 0 375 374.999991" height="500" preserveAspectRatio="xMidYMid meet" version="1.0"><defs><g/><clipPath id="5d5785032b"><path d="M 51.277344 87.039062 L 303 87.039062 L 303 193.539062 L 51.277344 193.539062 Z M 51.277344 87.039062 " clip-rule="nonzero"/></clipPath><clipPath id="969c0114ef"><path d="M 296 123 L 323.527344 123 L 323.527344 157 L 296 157 Z M 296 123 " clip-rule="nonzero"/></clipPath></defs><rect x="-37.5" width="450" fill="#ffffff" y="-37.499999" height="449.999989" fill-opacity="1"/><rect x="-37.5" width="450" fill="#ffffff" y="-37.499999" height="449.999989" fill-opacity="1"/><g clip-path="url(#5d5785032b)"><path fill="#bdbcbc" d="M 280.308594 87.089844 L 73.992188 87.089844 C 61.484375 87.089844 51.308594 97.90625 51.308594 111.195312 L 51.308594 169.378906 C 51.308594 182.667969 61.484375 193.484375 73.992188 193.484375 L 280.308594 193.484375 C 292.8125 193.484375 302.988281 182.667969 302.988281 169.378906 L 302.988281 111.195312 C 302.988281 97.90625 292.8125 87.089844 280.308594 87.089844 Z M 280.308594 96.800781 C 287.488281 96.800781 293.308594 103.246094 293.308594 111.195312 L 293.308594 169.378906 C 293.308594 177.328125 287.488281 183.773438 280.308594 183.773438 L 73.992188 183.773438 C 66.808594 183.773438 60.992188 177.328125 60.992188 169.378906 L 60.992188 111.195312 C 60.992188 103.246094 66.808594 96.800781 73.992188 96.800781 L 280.308594 96.800781 " fill-opacity="1" fill-rule="nonzero"/></g><path fill="#f14624" d="M 98.667969 165.796875 C 98.667969 172.769531 94.035156 178.417969 88.316406 178.417969 L 76.183594 178.417969 C 70.464844 178.417969 65.832031 172.769531 65.832031 165.796875 L 65.832031 114.78125 C 65.832031 107.808594 70.464844 102.15625 76.183594 102.15625 L 88.316406 102.15625 C 94.035156 102.15625 98.667969 107.808594 98.667969 114.78125 L 98.667969 165.796875 " fill-opacity="1" fill-rule="nonzero"/><path fill="#f68712" d="M 135.984375 165.796875 C 135.984375 172.769531 131.351562 178.417969 125.632812 178.417969 L 113.5 178.417969 C 107.78125 178.417969 103.148438 172.769531 103.148438 165.796875 L 103.148438 114.78125 C 103.148438 107.808594 107.78125 102.15625 113.5 102.15625 L 125.632812 102.15625 C 131.351562 102.15625 135.984375 107.808594 135.984375 114.78125 L 135.984375 165.796875 " fill-opacity="1" fill-rule="nonzero"/><path fill="#f9a72b" d="M 173.296875 165.796875 C 173.296875 172.769531 168.664062 178.417969 162.945312 178.417969 L 150.8125 178.417969 C 145.09375 178.417969 140.460938 172.769531 140.460938 165.796875 L 140.460938 114.78125 C 140.460938 107.808594 145.09375 102.15625 150.8125 102.15625 L 162.945312 102.15625 C 168.664062 102.15625 173.296875 107.808594 173.296875 114.78125 L 173.296875 165.796875 " fill-opacity="1" fill-rule="nonzero"/><path fill="#f2ef1d" d="M 210.609375 165.796875 C 210.609375 172.769531 205.976562 178.417969 200.261719 178.417969 L 188.128906 178.417969 C 182.40625 178.417969 177.769531 172.769531 177.769531 165.796875 L 177.769531 114.78125 C 177.769531 107.808594 182.40625 102.15625 188.128906 102.15625 L 200.261719 102.15625 C 205.976562 102.15625 210.609375 107.808594 210.609375 114.78125 L 210.609375 165.796875 " fill-opacity="1" fill-rule="nonzero"/><path fill="#cce310" d="M 247.929688 165.796875 C 247.929688 172.769531 243.292969 178.417969 237.578125 178.417969 L 225.441406 178.417969 C 219.722656 178.417969 215.089844 172.769531 215.089844 165.796875 L 215.089844 114.78125 C 215.089844 107.808594 219.722656 102.15625 225.441406 102.15625 L 237.578125 102.15625 C 243.292969 102.15625 247.929688 107.808594 247.929688 114.78125 L 247.929688 165.796875 " fill-opacity="1" fill-rule="nonzero"/><path fill="#80cc28" d="M 285.242188 165.796875 C 285.242188 172.769531 280.605469 178.417969 274.890625 178.417969 L 262.753906 178.417969 C 257.039062 178.417969 252.402344 172.769531 252.402344 165.796875 L 252.402344 114.78125 C 252.402344 107.808594 257.039062 102.15625 262.753906 102.15625 L 274.890625 102.15625 C 280.605469 102.15625 285.242188 107.808594 285.242188 114.78125 L 285.242188 165.796875 " fill-opacity="1" fill-rule="nonzero"/><g clip-path="url(#969c0114ef)"><path fill="#bdbcbc" d="M 296.34375 156.757812 L 314.222656 156.757812 C 321.175781 156.757812 323.578125 152.109375 323.578125 146.375 L 323.578125 134.199219 C 323.578125 128.46875 321.175781 123.816406 314.222656 123.816406 L 296.34375 123.816406 L 296.34375 156.757812 " fill-opacity="1" fill-rule="nonzero"/></g><g fill="#000000" fill-opacity="1"><g transform="translate(36.337562, 271.222723)"><g><path d="M 25.867188 0.550781 C 32.316406 0.550781 36.640625 -1.886719 39.472656 -4.167969 L 37.035156 -8.097656 C 33.8125 -5.660156 29.878906 -4.246094 26.183594 -4.246094 C 16.199219 -4.246094 9.042969 -12.1875 9.042969 -23.429688 C 9.042969 -34.832031 15.882812 -42.773438 25.949219 -42.773438 C 30.113281 -42.773438 34.125 -41.125 37.507812 -38.449219 L 40.101562 -42.382812 C 36.5625 -45.449219 31.453125 -47.648438 25.476562 -47.648438 C 12.503906 -47.648438 2.988281 -37.742188 2.988281 -23.429688 C 2.988281 -9.277344 12.503906 0.550781 25.867188 0.550781 Z M 25.867188 0.550781 "/></g></g></g><g fill="#000000" fill-opacity="1"><g transform="translate(89.093752, 271.222723)"><g><path d="M 11.007812 0.628906 L 12.34375 -2.988281 C 9.59375 -3.460938 8.726562 -5.191406 8.726562 -8.019531 L 8.726562 -48.121094 L 3.460938 -46.941406 L 3.460938 -7.46875 C 3.460938 -1.808594 6.289062 0.15625 11.007812 0.628906 Z M 11.007812 0.628906 "/></g></g></g><g fill="#000000" fill-opacity="1"><g transform="translate(113.232302, 271.222723)"><g><path d="M 6.449219 -36.484375 C 8.335938 -36.484375 9.90625 -37.976562 9.90625 -39.945312 C 9.90625 -41.910156 8.335938 -43.402344 6.449219 -43.402344 C 4.558594 -43.402344 2.988281 -41.910156 2.988281 -39.945312 C 2.988281 -37.976562 4.558594 -36.484375 6.449219 -36.484375 Z M 3.851562 0 L 9.121094 0 L 9.121094 -30.742188 L 3.851562 -30.742188 Z M 3.851562 0 "/></g></g></g><g fill="#000000" fill-opacity="1"><g transform="translate(136.741887, 271.222723)"><g><path d="M 40.101562 -31.609375 C 36.40625 -31.609375 32.238281 -30.113281 28.621094 -26.96875 C 26.578125 -29.40625 22.800781 -31.609375 17.691406 -31.609375 C 14.703125 -31.609375 10.695312 -30.664062 7.863281 -27.914062 L 6.683594 -30.742188 L 3.460938 -30.742188 L 3.460938 0 L 8.726562 0 L 8.726562 -24.140625 C 10.613281 -26.027344 13.523438 -27.285156 16.746094 -27.285156 C 20.757812 -27.285156 23.824219 -25.554688 25.476562 -23.351562 L 25.476562 0 L 30.742188 0 L 30.742188 -23.589844 C 33.8125 -26.027344 36.957031 -27.285156 39.863281 -27.285156 C 45.367188 -27.285156 47.886719 -23.902344 47.886719 -19.027344 L 47.886719 0 L 53.074219 0 L 53.074219 -19.105469 C 53.074219 -27.128906 47.886719 -31.609375 40.101562 -31.609375 Z M 40.101562 -31.609375 "/></g></g></g><g fill="#000000" fill-opacity="1"><g transform="translate(203.728273, 271.222723)"><g><path d="M 32.632812 -8.175781 L 32.632812 -30.742188 L 29.40625 -30.742188 L 28.304688 -28.148438 C 25.632812 -30.273438 22.171875 -31.6875 18.164062 -31.6875 C 9.75 -31.6875 2.359375 -25.476562 2.359375 -15.410156 C 2.359375 -5.191406 9.671875 0.707031 18.164062 0.707031 C 22.644531 0.707031 26.027344 -1.023438 28.464844 -2.910156 C 29.800781 -0.863281 31.6875 0.15625 33.730469 0.472656 L 36.011719 -3.144531 C 34.203125 -4.011719 32.632812 -5.738281 32.632812 -8.175781 Z M 19.027344 -3.695312 C 12.582031 -3.695312 7.707031 -8.414062 7.707031 -15.332031 C 7.707031 -22.410156 12.582031 -27.285156 19.027344 -27.285156 C 22.488281 -27.285156 25.320312 -25.949219 27.441406 -24.21875 L 27.441406 -6.917969 C 25.082031 -4.953125 22.488281 -3.695312 19.027344 -3.695312 Z M 19.027344 -3.695312 "/></g></g></g><g fill="#000000" fill-opacity="1"><g transform="translate(251.452801, 271.222723)"><g><path d="M 17.613281 -26.417969 L 17.613281 -30.742188 L 8.726562 -30.742188 L 8.726562 -41.753906 L 3.460938 -40.492188 L 3.460938 -7.707031 C 3.460938 -2.203125 6.917969 0.628906 11.636719 0.628906 C 13.839844 0.628906 15.253906 0.394531 16.984375 -0.550781 L 15.175781 -3.773438 C 14.546875 -3.539062 13.761719 -3.460938 12.816406 -3.460938 C 10.144531 -3.460938 8.726562 -5.109375 8.726562 -8.019531 L 8.726562 -26.417969 Z M 17.613281 -26.417969 "/></g></g></g><g fill="#000000" fill-opacity="1"><g transform="translate(280.780264, 271.222723)"><g><path d="M 6.449219 -36.484375 C 8.335938 -36.484375 9.90625 -37.976562 9.90625 -39.945312 C 9.90625 -41.910156 8.335938 -43.402344 6.449219 -43.402344 C 4.558594 -43.402344 2.988281 -41.910156 2.988281 -39.945312 C 2.988281 -37.976562 4.558594 -36.484375 6.449219 -36.484375 Z M 3.851562 0 L 9.121094 0 L 9.121094 -30.742188 L 3.851562 -30.742188 Z M 3.851562 0 "/></g></g></g><g fill="#000000" fill-opacity="1"><g transform="translate(304.289841, 271.222723)"><g><path d="M 32.160156 0 L 18.164062 -16.90625 L 32.082031 -30.742188 L 25.949219 -30.742188 L 8.726562 -13.367188 L 8.726562 -48.121094 L 3.460938 -46.941406 L 3.460938 0 L 8.726562 0 L 8.726562 -7.390625 L 14.625 -13.210938 L 25.554688 0 Z M 32.160156 0 "/></g></g></g></svg>